<svg aria-hidden="true" style="position:absolute;width:0;height:0;overflow:hidden" xmlns="http://www.w3.org/2000/svg">
  <defs>
    <symbol id="icon-Tilda" viewBox="0 0 32 32">
      <path d="M15.67 3.4h-.44A12.45 12.45 0 0 0 3.05 15.65a.52.52 0 0 0-.06.23c0 .08.03.16.07.23a12.44 12.44 0 0 0 12.16 12.12h.01l.14.01h.1c6.87 0 12.43-5.57 12.44-12.43A12.44 12.44 0 0 0 15.68 3.4h-.01zM26.94 15.4h-4.55c-.08-4.67-1.55-8.6-3.72-10.6a11.52 11.52 0 0 1 8.27 10.58v.02zM15 4.37V15.4H9.31C9.42 9.5 11.9 4.73 15 4.37zm0 12v10.9c-3.07-.36-5.54-5.07-5.68-10.9H15zm.96 10.87V16.37h5.47c-.14 5.7-2.5 10.33-5.48 10.87zm0-11.83V4.4c3 .54 5.37 5.24 5.47 11.01h-5.47zM11.98 4.89c-2.12 2.03-3.54 5.93-3.62 10.52H4.02a11.5 11.5 0 0 1 7.88-10.5l.08-.02zM4.02 16.38h4.34c.1 4.53 1.53 8.37 3.62 10.37A11.52 11.52 0 0 1 4.02 16.4v-.03zm14.65 10.47c2.15-1.98 3.61-5.87 3.72-10.47h4.55a11.51 11.51 0 0 1-8.18 10.45l-.08.02z"/>
    </symbol>
    <symbol id="icon-gethub" viewBox="0 0 32 32">
      <path d="M16.67 31.99h.03L16 32A16 16 0 0 1 15.33.01h-.03L16 0a16 16 0 0 1 .67 31.99zm0 0a25.4 25.4 0 0 0 2.81-.38l-.01-.96.01-3.65c0-1.23-.42-2.04-.9-2.45 2.96-.33 6.07-1.46 6.07-6.56 0-1.45-.52-2.64-1.37-3.57.14-.33.6-1.68-.13-3.51 0 0-1.11-.36-3.65 1.36a12.78 12.78 0 0 0-6.65 0c-2.54-1.72-3.66-1.36-3.66-1.36a4.78 4.78 0 0 0-.12 3.51A5.12 5.12 0 0 0 7.7 18c0 5.09 3.1 6.23 6.05 6.56-.38.34-.72.92-.84 1.78-.76.34-2.69.93-3.87-1.1 0 0-.7-1.28-2.03-1.37 0 0-1.3-.02-.1.8 0 0 .88.41 1.48 1.95 0 0 .78 2.58 4.47 1.78l.02 2.46v-.2.92a12.93 12.93 0 0 0 3.81.41h-.02z"/>
    </symbol>
    <symbol id="icon-google" viewBox="0 0 32 32">
      <path d="M16 32a16 16 0 1 1 0-32 16 16 0 1 1 0 32zm-4.75-16a4.76 4.76 0 0 1 7.29-4.03h-.02l2.59-2.13a8 8 0 1 0 2.74 4.61l.01.05h-7.68v3.17h4.28a4.76 4.76 0 0 1-9.21-1.66V16z"/>
    </symbol>
    <symbol id="icon-youtube" viewBox="0 0 32 32">
      <path d="M16 32a16 16 0 1 0 0-32 16 16 0 1 0 0 32zm5.73-21.56c1.23.11 1.92.86 2.07 2.06.1.84.2 2.04.2 3.32 0 2.26-.2 3.57-.2 3.57-.19 1.19-.77 1.84-1.98 1.98-1.35.15-4.4.22-5.76.22-1.4 0-4.23-.06-5.65-.18-1.21-.1-2.05-.77-2.2-1.98A24.71 24.71 0 0 1 8 15.82v.02c0-1.86.06-2.64.22-3.48.23-1.2.8-1.77 2.1-1.9a49.5 49.5 0 0 1 5.55-.22c1.4 0 4.45.08 5.86.2zm-7.43 3.13v4.6l4.38-2.33-4.38-2.27z"/>
    </symbol>
    <symbol id="icon-twitch" viewBox="0 0 32 32">
      <path d="M9.1 7.68 8 10.59v11.63h4v2.19h2.19l2.17-2.19h3.28L24 17.86V7.68H9.1zm1.45 1.45h12v8L20 19.68h-4l-2.18 2.18v-2.18h-3.28V9.13zm4 7.28H16v-4.37h-1.45v4.37zm4 0H20v-4.37h-1.46v4.37z"/>
    </symbol>
    <symbol id="icon-wechat" viewBox="0 0 32 32">
      <path d="M13.01 7.37c-.84.08-1.35.18-1.94.35-2.44.74-4.27 2.48-4.82 4.59a5.44 5.44 0 0 0 1.43 5.2c.21.21.52.5.68.63l.3.24-.34.67c-.3.6-.34.7-.34.89 0 .18.02.24.1.35.12.16.33.27.5.27.08 0 .61-.2 1.29-.49.24-.12.64-.28 1.04-.44l.16-.05a12.13 12.13 0 0 0 2.29.34l.47.03.09.24a5.65 5.65 0 0 0 3.56 3.14 7.48 7.48 0 0 0 3.21.33h-.03l.4-.04 1.57.68c1.43.6 1.6.67 1.76.65a.65.65 0 0 0 .56-.63c0-.1-.13-.4-.43-1l-.44-.88.13-.1a4.9 4.9 0 0 0 1.78-2.39c.16-.5.2-.75.2-1.3 0-.52-.04-.8-.18-1.24a5.61 5.61 0 0 0-3.7-3.38c-.24-.08-.6-.18-.8-.22l-.33-.07v-.22c0-.29-.1-.93-.2-1.3-.7-2.49-3.14-4.38-6.2-4.8-.33-.04-1.5-.08-1.77-.05zm1.33 1.27c2.34.23 4.3 1.45 5.15 3.2.23.47.36.92.4 1.48l.04.3-.58.05a6.9 6.9 0 0 0-4.2 1.74 4.5 4.5 0 0 0-1.5 2.96l-.04.3-.33-.02a10.8 10.8 0 0 1-1.84-.3l.08.02c-.48-.14-.6-.13-1.04.07l-.46.2-.09.03.08-.17c.1-.23.1-.49-.02-.66a2.57 2.57 0 0 0-.48-.4 5.54 5.54 0 0 1-1.76-2.02v-.03a3.53 3.53 0 0 1-.4-1.61v-.1c0-1.05.26-1.79.93-2.68 1.23-1.63 3.7-2.59 6.06-2.36zm-3.53 2.58c-.22.12-.3.32-.29.58a.7.7 0 0 0 .1.31c.09.13.35.27.5.27a.7.7 0 0 0 .54-.3c.19-.3.07-.74-.26-.89a.59.59 0 0 0-.6.03zm5.06-.01c-.23.12-.33.3-.3.58 0 .26.1.4.32.51.2.1.34.1.55 0 .22-.1.34-.3.34-.55s-.13-.46-.34-.56c-.21-.1-.37-.1-.57.02zm5.17 3.78c1.13.2 2.09.66 2.8 1.33.33.3.6.66.8 1.05v.02c.22.46.29.76.29 1.27 0 .53-.08.88-.32 1.33-.3.6-.7 1.04-1.4 1.5-.44.3-.55.43-.57.68-.01.16.01.24.16.54.16.33.17.36.1.33l-.82-.35-.65-.28-.16-.05c-.05-.02-.3 0-.57.03-.61.08-1.05.08-1.62 0A5.42 5.42 0 0 1 16 21.02c-.32-.3-.6-.65-.8-1.05v-.02a2.48 2.48 0 0 1-.29-1.28c0-.53.07-.81.29-1.28.6-1.26 2.06-2.18 3.85-2.43.48-.07 1.5-.05 2 .03zm-3.3 1.88c-.22.13-.3.31-.29.58.02.27.1.4.33.52.2.1.34.1.55 0 .45-.21.45-.9 0-1.11a.6.6 0 0 0-.6.02h.01zm3.77.01c-.22.13-.3.32-.29.59.02.11.05.25.1.3.1.14.35.27.51.27a.7.7 0 0 0 .53-.29c.19-.31.07-.75-.25-.9a.59.59 0 0 0-.6.03z"/>
    </symbol>
    <symbol id="icon-whatsapp" viewBox="0 0 32 32">
      <path d="M16.15 7.36c2.34 0 4.53.9 6.17 2.56a8.66 8.66 0 0 1 2.56 6.17v.01a8.71 8.71 0 0 1-12.94 7.62l.04.03-4.62 1.21 1.24-4.52a8.74 8.74 0 0 1 7.56-13.08zm0 15.97a7.26 7.26 0 0 0 5.13-12.37 7.18 7.18 0 0 0-5.1-2.13h-.02a7.26 7.26 0 0 0-6.13 11.13l-.02-.03.17.28-.73 2.68 2.75-.72.26.15c1.06.64 2.33 1.01 3.69 1.01zm2.5-6.13c.75.33 1.28.6 1.8.86l-.2-.1c.15.08.26.13.3.2.05.1.05.53-.13 1.04-.18.5-1.05.97-1.47 1.03a2.92 2.92 0 0 1-1.4-.09h.03c-.51-.15-.92-.3-1.32-.48l.08.03c-2.05-.88-3.43-2.86-3.69-3.24l-.04-.05c-.11-.15-.89-1.19-.89-2.26 0-1 .5-1.53.72-1.77l.05-.04a.8.8 0 0 1 .57-.28h.12a9 9 0 0 1 .37.01h-.02c.13 0 .29 0 .44.37l.25.6.43 1.02c.05.11.09.24.01.39l-.03.06c-.05.1-.1.2-.18.3l-.12.13c-.07.1-.15.18-.21.25-.11.11-.23.23-.1.45.13.21.57.92 1.22 1.5.7.63 1.3.89 1.6 1.02l.15.07c.21.1.34.09.47-.06.13-.14.54-.63.69-.85.15-.22.29-.18.5-.11z"/>
    </symbol>
   <symbol id="icon-envelop" viewBox="0 0 32 32">
<path d="M29 4h-26c-1.65 0-3 1.35-3 3v20c0 1.65 1.35 3 3 3h26c1.65 0 3-1.35 3-3v-20c0-1.65-1.35-3-3-3zM12.461 17.199l-8.461 6.59v-15.676l8.461 9.086zM5.512 8h20.976l-10.488 7.875-10.488-7.875zM12.79 17.553l3.21 3.447 3.21-3.447 6.58 8.447h-19.579l6.58-8.447zM19.539 17.199l8.461-9.086v15.676l-8.461-6.59z"></path>
</symbol>
<symbol id="icon-mobile" viewBox="0 0 32 32">
<path d="M23 0h-14c-1.65 0-3 1.35-3 3v26c0 1.65 1.35 3 3 3h14c1.65 0 3-1.35 3-3v-26c0-1.65-1.35-3-3-3zM12 1.5h8v1h-8v-1zM16 30c-1.105 0-2-0.895-2-2s0.895-2 2-2 2 0.895 2 2-0.895 2-2 2zM24 24h-16v-20h16v20z"></path>
</symbol>
  </defs>
</svg>
