<svg xmlns="http://www.w3.org/2000/svg" viewBox="0 0 100.35 100.35" style="enable-background:new 0 0 100.353 100.353" xml:space="preserve">
  <path d="M49.14 10.64h-1.38a39.02 39.02 0 0 0-38.2 38.48c-.1.21-.18.45-.18.7 0 .27.08.52.2.73a39.01 39.01 0 0 0 38.18 38.02l.45.02h.32a39.02 39.02 0 0 0 38.99-38.98 39.02 39.02 0 0 0-38.38-38.96zm35.34 37.69H70.21c-.25-14.64-4.85-27-11.65-33.27a36.04 36.04 0 0 1 25.92 33.27zM47.04 13.7v34.62H29.2c.35-18.5 8.11-33.5 17.83-34.62zm0 37.62v34.19c-9.64-1.13-17.36-15.89-17.82-34.2h17.82zm3 34.1v-34.1H67.2c-.45 17.9-7.83 32.4-17.17 34.1zm0-37.1V13.8c9.4 1.7 16.84 16.43 17.18 34.53H50.04zM37.56 15.35c-6.63 6.36-11.1 18.57-11.35 32.98H12.6a36.04 36.04 0 0 1 24.96-32.98zM12.6 51.33h13.62c.33 14.22 4.78 26.25 11.34 32.54A36.05 36.05 0 0 1 12.6 51.33zm45.96 32.83c6.73-6.21 11.31-18.39 11.65-32.83h14.26a36.05 36.05 0 0 1-25.9 32.83z"/>
</svg>
