<svg width="100" height="100" fill="none" xmlns="http://www.w3.org/2000/svg">
  <path fill-rule="evenodd" clip-rule="evenodd" d="M50.48 23c7.3 0 14.14 2.84 19.28 8 5.15 5.14 7.98 12 7.98 19.27a27.23 27.23 0 0 1-40.29 23.94L23 78l3.87-14.12A27.3 27.3 0 0 1 50.49 23Zm0 49.92a22.68 22.68 0 0 0 16.03-38.67 22.5 22.5 0 0 0-16.02-6.65 22.69 22.69 0 0 0-19.2 34.7l.54.87-2.29 8.36 8.58-2.25.83.49a22.62 22.62 0 0 0 11.52 3.15Zm7.78-19.18a112.9 112.9 0 0 1 5.02 2.4c.47.23.8.39.93.62.17.28.17 1.64-.4 3.23-.56 1.6-3.28 3.05-4.59 3.24a9.33 9.33 0 0 1-4.29-.27 39 39 0 0 1-3.88-1.43c-6.39-2.76-10.7-8.95-11.52-10.12l-.12-.17c-.35-.47-2.78-3.7-2.78-7.04 0-3.14 1.54-4.78 2.25-5.54l.14-.14a2.5 2.5 0 0 1 1.81-.85 26.97 26.97 0 0 1 1.46.02c.4 0 .9 0 1.38 1.17l.76 1.83c.58 1.43 1.23 3 1.34 3.23.17.34.28.73.06 1.19l-.1.2c-.17.34-.3.6-.58.93l-.35.42c-.24.29-.47.57-.68.78-.34.34-.7.7-.3 1.39.4.68 1.77 2.9 3.8 4.71 2.17 1.95 4.06 2.77 5.02 3.18l.45.2c.68.35 1.08.29 1.48-.17.4-.45 1.7-1.98 2.15-2.67.46-.68.91-.56 1.54-.34Z" fill="#000"/>
</svg>
