<svg width="100" height="100" fill="none" xmlns="http://www.w3.org/2000/svg">
  <path fill-rule="evenodd" clip-rule="evenodd" d="M50 100A50 50 0 1 0 50 0a50 50 0 0 0 0 100Zm17.9-67.37c3.84.34 6 2.69 6.47 6.43.34 2.62.63 6.36.63 10.38 0 7.06-.63 11.15-.63 11.15-.58 3.72-2.39 5.75-6.18 6.18-4.23.48-13.76.7-17.99.7-4.38 0-13.24-.19-17.66-.56-3.8-.31-6.4-2.43-6.91-6.21A79.61 79.61 0 0 1 25 49.48c0-5.8.2-8.24.7-10.86.7-3.73 2.48-5.54 6.55-5.96 4.27-.44 8.3-.66 17.33-.66 4.41 0 13.92.23 18.32.63Zm-23.22 9.76v14.37l13.69-7.26-13.69-7.11Z" fill="#000"/>
</svg>
