<svg width="100" height="100" fill="none" xmlns="http://www.w3.org/2000/svg">
  <path fill-rule="evenodd" clip-rule="evenodd" d="M52.08 99.96A50 50 0 1 0 47.92.04a50 50 0 0 0 4.16 99.92Zm0 0c3.83-.22 8.8-1.19 8.8-1.19l-.04-2.99s.05-5.84.05-11.39c0-3.87-1.33-6.4-2.82-7.68 9.25-1.03 18.95-4.54 18.95-20.49 0-4.53-1.6-8.24-4.27-11.14.43-1.05 1.85-5.27-.41-10.98 0 0-3.48-1.12-11.4 4.25a39.81 39.81 0 0 0-10.4-1.4c-3.53.02-7.08.48-10.39 1.4-7.93-5.37-11.42-4.25-11.42-4.25-2.25 5.71-.83 9.93-.4 10.98a16.05 16.05 0 0 0-4.28 11.14c0 15.9 9.7 19.47 18.91 20.52-1.18 1.04-2.25 2.87-2.63 5.55-2.37 1.06-8.38 2.9-12.08-3.45 0 0-2.2-3.99-6.36-4.28 0 0-4.05-.05-.29 2.52 0 0 2.73 1.28 4.61 6.08 0 0 2.44 8.07 13.99 5.56a1191.58 1191.58 0 0 0 .05 7.06l.01 2.9a41.44 41.44 0 0 0 11.82 1.28Z" fill="#000"/>
</svg>
