<svg width="100" height="100" fill="none" xmlns="http://www.w3.org/2000/svg">
  <path fill-rule="evenodd" clip-rule="evenodd" d="M40.67 23.03c-2.63.26-4.24.55-6.08 1.11-7.62 2.3-13.34 7.75-15.05 14.32-1.5 5.78.14 11.7 4.46 16.23.67.7 1.63 1.6 2.14 2l.92.75L26 59.53c-.94 1.86-1.06 2.16-1.06 2.77 0 .57.05.77.32 1.12.38.5 1.01.84 1.58.84.23 0 1.88-.64 4-1.54a71.9 71.9 0 0 1 3.76-1.53c.1 0 .71.13 1.4.3 1.4.33 3.65.64 5.75.77l1.46.1.28.73c1.66 4.37 5.84 8.04 11.15 9.82a23.86 23.86 0 0 0 9.92 1.04l1.23-.14 4.94 2.12c4.45 1.9 5 2.12 5.48 2.06.97-.1 1.76-1 1.76-1.97 0-.3-.4-1.25-1.36-3.17l-1.36-2.73.4-.32c2.84-2.21 4.65-4.64 5.55-7.45.5-1.57.63-2.35.63-4.05 0-1.65-.13-2.5-.57-3.88-1.5-4.7-5.9-8.72-11.53-10.57-.77-.25-1.9-.56-2.49-.69l-1.07-.22v-.68c0-.91-.31-2.92-.63-4.06-2.16-7.78-9.8-13.7-19.35-15-1.04-.14-4.7-.25-5.53-.17ZM44.81 27c7.3.71 13.45 4.53 16.11 10 .72 1.48 1.1 2.88 1.26 4.63l.09.93-1.8.15c-5.26.44-9.81 2.32-13.14 5.44-2.84 2.66-4.37 5.68-4.7 9.24l-.08.96-1.06-.07a33.37 33.37 0 0 1-5.5-.87c-1.48-.43-1.86-.4-3.25.2-.64.29-1.29.56-1.43.62l-.27.1.23-.51c.33-.72.31-1.54-.04-2.07-.15-.23-.83-.8-1.5-1.27a17.19 17.19 0 0 1-5.54-6.39 11.18 11.18 0 0 1-1.2-5.35c-.02-3.28.78-5.58 2.88-8.37 3.85-5.1 11.54-8.09 18.94-7.37Zm-11.04 8.05c-.66.4-.95 1-.88 1.84.03.36.16.78.3.97.28.4 1.1.82 1.59.82.6 0 1.34-.42 1.65-.91.6-.98.22-2.33-.79-2.79a1.85 1.85 0 0 0-1.87.07Zm15.82-.02c-.73.38-1.02.93-.96 1.81.05.82.33 1.25 1.02 1.6.62.3 1.08.3 1.73 0 .67-.3 1.06-.94 1.06-1.73s-.4-1.43-1.06-1.73c-.67-.3-1.16-.3-1.8.05Zm16.16 11.82c3.53.63 6.53 2.05 8.75 4.16A10.99 10.99 0 0 1 77 54.36c.68 1.43.9 2.35.9 3.94 0 1.66-.25 2.75-.98 4.17-.97 1.9-2.22 3.24-4.4 4.7-1.37.92-1.7 1.32-1.77 2.11-.04.49.03.74.5 1.7.5 1.02.53 1.12.29 1.03L69 70.92a75.55 75.55 0 0 0-2.54-1.06c-.14-.04-.94 0-1.78.11-1.9.24-3.28.24-5.05 0-3.92-.5-7.23-1.98-9.65-4.27a10.99 10.99 0 0 1-2.51-3.35 7.87 7.87 0 0 1-.9-4c0-1.65.2-2.54.9-3.99 1.9-3.94 6.43-6.82 12.03-7.62 1.49-.22 4.68-.15 6.24.12Zm-10.31 5.88c-.68.38-.97.96-.91 1.81.05.82.33 1.25 1.02 1.6.62.3 1.08.3 1.73 0 1.42-.64 1.42-2.81 0-3.46a1.89 1.89 0 0 0-1.84.05Zm11.77.02c-.67.4-.95 1-.88 1.84.03.36.15.78.29.97.29.4 1.1.82 1.6.82.59 0 1.34-.42 1.64-.91.6-.98.23-2.33-.78-2.79a1.85 1.85 0 0 0-1.87.07Z" fill="#000"/>
</svg>
